<?xml version="1.0" encoding="utf-8"?>
<!-- Generator: Adobe Illustrator 26.4.1, SVG Export Plug-In . SVG Version: 6.00 Build 0)  -->
<svg version="1.1" id="图层_1" xmlns="http://www.w3.org/2000/svg" xmlns:xlink="http://www.w3.org/1999/xlink" x="0px" y="0px"
	 viewBox="0 0 400 400" style="enable-background:new 0 0 400 400;" xml:space="preserve">
<style type="text/css">
	.st0{fill:#FCEA2B;}
	.st1{fill:none;stroke:#000000;stroke-width:2;stroke-linecap:round;stroke-linejoin:round;stroke-miterlimit:10;}
	.st2{fill:none;stroke:#000000;stroke-width:2;stroke-miterlimit:10;}
	.st3{fill:#3F3F3F;stroke:#3F3F3F;stroke-width:2;stroke-miterlimit:10;}
	.st4{fill:none;stroke:#F1B31C;stroke-width:2;stroke-miterlimit:10;}
	.st5{fill:#F1B31C;}
	.st6{fill:#F1B31C;stroke:#F1B31C;stroke-width:1.747;stroke-linecap:round;stroke-linejoin:round;stroke-miterlimit:10;}
	.st7{fill:#3F3F3F;}
	.st8{fill:none;stroke:#000000;stroke-width:1.747;stroke-linecap:round;stroke-linejoin:round;stroke-miterlimit:10;}
	.st9{fill:#FFB2DE;}
	.st10{fill:none;}
	.st11{fill:#A6CDE7;}
	.st12{fill:none;stroke:#EA5A47;stroke-width:2;stroke-linecap:round;stroke-linejoin:round;}
	.st13{fill:#EA5A47;}
	.st14{fill:#FFFFFF;}
	.st15{fill:none;stroke:#000000;stroke-width:2;stroke-linejoin:round;stroke-miterlimit:10;}
	.st16{fill:#FFB2DE;stroke:#000000;stroke-miterlimit:10;}
	.st17{fill:#A6CDE7;stroke:#000000;stroke-miterlimit:10;}
	.st18{fill:#EA5A47;stroke:#000000;stroke-miterlimit:10;}
</style>
<g id="color">
	<circle class="st0" cx="203.13" cy="184.8" r="108.32"/>
</g>
<g id="line">
	<circle class="st1" cx="203.13" cy="184.8" r="108.32"/>
	<path class="st1" d="M123.41,158.46c0,0-4.49,40.27,32.31,37.29c12.34-1,36.81-3.06,37.05-39.29c0.02-3.29-0.04-7.53-3.82-12.39
		c-5.01-6.44-16.82-9.28-46.84-6.7C142.12,137.38,125.89,136.91,123.41,158.46z"/>
	<polyline class="st1" points="123.74,155.95 121.7,140.07 139.76,137.58 	"/>
	<path class="st1" d="M282.87,158.46c0,0,4.49,40.27-32.31,37.29c-12.34-1-36.81-3.06-37.05-39.29c-0.02-3.29,0.04-7.53,3.82-12.39
		c5.01-6.44,16.82-9.28,46.84-6.7C264.16,137.38,280.39,136.91,282.87,158.46z"/>
	<path class="st1" d="M182.86,139.39c0,0,19.42,11.93,40.77,0"/>
	<path class="st1" d="M192.78,162.48c0,0,10.02-17.67,20.64,0"/>
	<polyline class="st1" points="282.51,155.96 284.55,140.08 266.5,137.59 	"/>
	<path class="st1" d="M194.4,156.4c0,0,8.46-17.67,17.42,0"/>
	<path class="st2" d="M203.13,260.22"/>
	<path class="st2" d="M184.96,238.36"/>
	<path d="M174.87,161.25c0,7.8-6.33,14.13-14.13,14.13c-7.8,0-14.13-6.33-14.13-14.13c0-7.8,6.33-14.13,14.13-14.13
		C168.53,147.12,174.87,153.45,174.87,161.25"/>
	<path d="M259.64,161.25c0,7.8-6.33,14.13-14.13,14.13s-14.13-6.33-14.13-14.13c0-7.8,6.33-14.13,14.13-14.13
		S259.64,153.45,259.64,161.25"/>
	<path class="st2" d="M203.13,260.22"/>
	<path class="st2" d="M221.29,238.36"/>
	<path class="st1" d="M156.9,226.27"/>
	<path class="st1" d="M249.35,226.27"/>
</g>
<g id="color_00000020388538407268289560000014306882188217276094_">
	<polyline class="st3" points="277.32,37.72 277.32,104.85 127.97,104.85 127.97,37.72 	"/>
	<line class="st4" x1="101.06" y1="39.9" x2="101.06" y2="71.28"/>
	<circle class="st5" cx="101.06" cy="71.28" r="7.47"/>
	<polygon class="st6" points="108.52,104.85 94.36,104.85 101.44,74.53 101.44,74.53 	"/>
	<rect x="83.16" y="18.89" class="st7" width="238.97" height="18.82"/>
	<polyline class="st7" points="277.32,48.92 277.32,104.85 127.97,104.85 127.97,48.92 	"/>
</g>
<g id="line_00000178918832210129111130000009876939783576699794_">
	<circle cx="202.64" cy="15.63" r="11.2"/>
	<rect x="83.16" y="18.89" class="st1" width="238.97" height="18.82"/>
	<polyline class="st8" points="277.32,48.92 277.32,104.85 127.97,104.85 127.97,48.92 	"/>
</g>
<g id="skin">
	<path class="st9" d="M32.17,276.9c-16.94-16.94-15.88-36.14-3.03-48.99s35.68-18.89,67.56,20.56"/>
	<line class="st10" x1="30.38" y1="275.69" x2="47.35" y2="292.66"/>
	<path class="st9" d="M57.65,283.19c2.62,2.85,2.43,7.27-0.41,9.89c-2.85,2.62-7.27,2.43-9.89-0.41"/>
	<path class="st0" d="M67.87,273.62c2.62,2.85,2.43,7.27-0.41,9.89c-2.85,2.62-7.27,2.43-9.89-0.41"/>
	<path class="st9" d="M68.06,273.82c2.51,2.94,2.15,7.36-0.79,9.87c-2.94,2.51-7.36,2.15-9.87-0.79"/>
	<path class="st9" d="M78.5,264.35c2.55,2.9,2.27,7.33-0.63,9.88s-7.33,2.27-9.88-0.63"/>
	<path class="st9" d="M81.63,234.91c19.07,2.48,24.65,5.57,24.58,9.44c-0.07,3.87-9.16,6.94-13.03,6.88"/>
	<path class="st9" d="M120.04,286.09c2.73,2.73,2.73,7.17,0,9.9c-2.73,2.73-7.17,2.73-9.9,0"/>
	<line class="st10" x1="78.56" y1="264.4" x2="110.14" y2="295.98"/>
	<line class="st10" x1="120.04" y1="286.09" x2="80.74" y2="246.78"/>
	<line class="st10" x1="93.19" y1="250.86" x2="99.09" y2="251.22"/>
	<path class="st9" d="M93.55,236.44c-5.79-0.27-12.08-2.54-18.13-8.8"/>
	<line class="st10" x1="99.33" y1="237.22" x2="93.39" y2="236.43"/>
	<polygon class="st9" points="71.22,257.37 83.99,250.16 120.45,286.63 110.62,296.46 	"/>
	
		<rect x="34.04" y="258.48" transform="matrix(0.7071 -0.7071 0.7071 0.7071 -175.3174 118.1501)" class="st9" width="41.84" height="24.45"/>
	<polygon class="st9" points="83.9,249.94 89.06,247.59 92.85,252.82 85.64,251.74 	"/>
</g>
<g id="line_00000069381197372758411470000014698598963762153637_">
	<path class="st1" d="M29.14,274.46c-12.85-12.85-12.85-33.69,0-46.54s33.69-12.85,46.54,0"/>
	<line class="st1" x1="30.38" y1="275.69" x2="47.35" y2="292.66"/>
	<path class="st1" d="M57.65,283.19c2.62,2.85,2.43,7.27-0.41,9.89c-2.85,2.62-7.27,2.43-9.89-0.41"/>
	<path class="st1" d="M67.87,273.62c2.62,2.85,2.43,7.27-0.41,9.89c-2.85,2.62-7.27,2.43-9.89-0.41"/>
	<path class="st1" d="M68.06,273.82c2.51,2.94,2.15,7.36-0.79,9.87c-2.94,2.51-7.36,2.15-9.87-0.79"/>
	<path class="st1" d="M78.5,264.35c2.55,2.9,2.27,7.33-0.63,9.88s-7.33,2.27-9.88-0.63"/>
	<path class="st1" d="M99.33,237.22c3.87,0.07,6.94,3.26,6.88,7.12c-0.07,3.87-3.26,6.94-7.12,6.88"/>
	<path class="st1" d="M120.04,286.09c2.73,2.73,2.73,7.17,0,9.9c-2.73,2.73-7.17,2.73-9.9,0"/>
	<line class="st1" x1="78.56" y1="264.4" x2="110.14" y2="295.98"/>
	<line class="st1" x1="120.04" y1="286.09" x2="80.74" y2="246.78"/>
	<line class="st1" x1="93.19" y1="250.86" x2="99.09" y2="251.22"/>
	<path class="st1" d="M93.55,236.44c-5.79-0.27-12.08-2.54-18.13-8.8"/>
	<line class="st1" x1="99.33" y1="237.22" x2="93.39" y2="236.43"/>
</g>
<g id="skin_00000148653460874250155380000000242001290537433985_">
	<path class="st11" d="M371.15,282.92c16.94-16.94,15.88-36.14,3.03-48.99c-12.85-12.85-36.13-18.38-67.56,20.56"/>
	<line class="st10" x1="372.94" y1="281.71" x2="355.97" y2="298.68"/>
	<path class="st11" d="M345.67,289.21c-2.62,2.85-2.43,7.27,0.41,9.89c2.85,2.62,7.27,2.43,9.89-0.41"/>
	<path class="st0" d="M335.45,279.64c-2.62,2.85-2.43,7.27,0.41,9.89s7.27,2.43,9.89-0.41"/>
	<path class="st11" d="M335.26,279.84c-2.51,2.94-2.15,7.36,0.79,9.87c2.94,2.51,7.36,2.15,9.87-0.79"/>
	<path class="st11" d="M324.82,270.37c-2.55,2.9-2.27,7.33,0.63,9.88c2.9,2.55,7.33,2.27,9.88-0.63"/>
	<path class="st11" d="M321.69,240.93c-19.07,2.48-24.65,5.57-24.58,9.44c0.07,3.87,9.16,6.94,13.03,6.88"/>
	<path class="st11" d="M283.28,292.11c-2.73,2.73-2.73,7.17,0,9.9s7.17,2.73,9.9,0"/>
	<line class="st10" x1="324.76" y1="270.42" x2="293.18" y2="302.01"/>
	<line class="st10" x1="283.28" y1="292.11" x2="322.58" y2="252.8"/>
	<line class="st10" x1="310.13" y1="256.88" x2="304.23" y2="257.24"/>
	<path class="st11" d="M309.76,242.47c5.79-0.27,12.08-2.54,18.13-8.8"/>
	<line class="st10" x1="303.98" y1="243.25" x2="309.93" y2="242.46"/>
	<polygon class="st11" points="332.1,263.39 319.33,256.19 282.87,292.65 292.7,302.48 	"/>
	
		<rect x="336.13" y="255.8" transform="matrix(0.7071 -0.7071 0.7071 0.7071 -93.6414 327.377)" class="st11" width="24.45" height="41.84"/>
	<polygon class="st11" points="319.42,255.96 314.26,253.62 310.47,258.84 317.68,257.76 	"/>
</g>
<g id="line_00000070120037672505924430000010971727864438572952_">
	<path class="st1" d="M374.18,280.48c12.85-12.85,12.85-33.69,0-46.54c-12.85-12.85-33.69-12.85-46.54,0"/>
	<line class="st1" x1="372.94" y1="281.71" x2="355.97" y2="298.68"/>
	<path class="st1" d="M345.67,289.21c-2.62,2.85-2.43,7.27,0.41,9.89c2.85,2.62,7.27,2.43,9.89-0.41"/>
	<path class="st1" d="M335.45,279.64c-2.62,2.85-2.43,7.27,0.41,9.89s7.27,2.43,9.89-0.41"/>
	<path class="st1" d="M335.26,279.84c-2.51,2.94-2.15,7.36,0.79,9.87c2.94,2.51,7.36,2.15,9.87-0.79"/>
	<path class="st1" d="M324.82,270.37c-2.55,2.9-2.27,7.33,0.63,9.88c2.9,2.55,7.33,2.27,9.88-0.63"/>
	<path class="st1" d="M303.98,243.25c-3.87,0.07-6.94,3.26-6.88,7.12c0.07,3.87,3.26,6.94,7.12,6.88"/>
	<path class="st1" d="M283.28,292.11c-2.73,2.73-2.73,7.17,0,9.9s7.17,2.73,9.9,0"/>
	<line class="st1" x1="324.76" y1="270.42" x2="293.18" y2="302.01"/>
	<line class="st1" x1="283.28" y1="292.11" x2="322.58" y2="252.8"/>
	<line class="st1" x1="310.13" y1="256.88" x2="304.23" y2="257.24"/>
	<path class="st1" d="M309.76,242.47c5.79-0.27,12.08-2.54,18.13-8.8"/>
	<line class="st1" x1="303.98" y1="243.25" x2="309.93" y2="242.46"/>
	<path class="st1" d="M374.18,280.43c12.85-12.85,12.85-33.69,0-46.54c-12.85-12.85-33.69-12.85-46.54,0"/>
	<line class="st1" x1="372.94" y1="281.67" x2="355.97" y2="298.64"/>
	<path class="st1" d="M345.67,289.17c-2.62,2.85-2.43,7.27,0.41,9.89c2.85,2.62,7.27,2.43,9.89-0.41"/>
	<path class="st1" d="M335.45,279.6c-2.62,2.85-2.43,7.27,0.41,9.89c2.85,2.62,7.27,2.43,9.89-0.41"/>
	<path class="st1" d="M335.26,279.8c-2.51,2.94-2.15,7.36,0.79,9.87c2.94,2.51,7.36,2.15,9.87-0.79"/>
	<path class="st1" d="M324.82,270.32c-2.55,2.9-2.27,7.33,0.63,9.88c2.9,2.55,7.33,2.27,9.88-0.63"/>
	<path class="st1" d="M303.98,243.2c-3.87,0.07-6.94,3.26-6.88,7.12c0.07,3.87,3.26,6.94,7.12,6.88"/>
	<path class="st1" d="M283.28,292.06c-2.73,2.73-2.73,7.17,0,9.9s7.17,2.73,9.9,0"/>
	<line class="st1" x1="324.76" y1="270.38" x2="293.18" y2="301.96"/>
	<line class="st1" x1="283.28" y1="292.06" x2="322.58" y2="252.76"/>
	<line class="st1" x1="310.13" y1="256.84" x2="304.23" y2="257.2"/>
	<path class="st1" d="M309.77,242.42c5.79-0.27,12.08-2.54,18.13-8.8"/>
	<line class="st1" x1="303.98" y1="243.2" x2="309.93" y2="242.41"/>
</g>
<g id="line_00000026131357749227507670000010230829065646602919_">
	<polyline class="st12" points="140.73,54.99 155.13,44.22 155.49,96.64 	"/>
</g>
<g id="line_00000159459177854662470060000011857579502223064977_">
	<path class="st12" d="M214.28,88.34c1.81,4.98,6.55,8.3,11.85,8.3h0.35c6.96,0,12.6-5.64,12.6-12.6v0v-2.7
		c0-6.96-5.64-12.6-12.6-12.6l0,0h-12.2V44.72h24.8"/>
</g>
<g id="color_00000088846863254666074440000010031306434076355746_">
	<circle class="st13" cx="185.73" cy="94.02" r="3"/>
	<path class="st13" d="M185.63,84.55c-1.38,0-2.5-1.12-2.5-2.5V46.84c0-1.38,1.12-2.5,2.5-2.5s2.5,1.12,2.5,2.5v35.21
		C188.13,83.43,187.01,84.55,185.63,84.55z"/>
</g>
<g id="color_00000072268965335345931510000016999984519678788995_">
	<circle class="st13" cx="258.73" cy="94.02" r="3"/>
	<path class="st13" d="M258.63,84.55c-1.38,0-2.5-1.12-2.5-2.5V46.84c0-1.38,1.12-2.5,2.5-2.5s2.5,1.12,2.5,2.5v35.21
		C261.13,83.43,260.01,84.55,258.63,84.55z"/>
</g>
<g id="line_00000029012614309347577000000000290610401747903391_">
	<path class="st1" d="M244.13,47.84"/>
	<path class="st1" d="M239.13,47.84"/>
	<path class="st1" d="M239.13,83.05"/>
	<path class="st1" d="M244.13,83.05"/>
</g>
<g id="color_00000098215516001546025480000000220358223438359961_">
	<path class="st13" d="M272.19,240.24c-9.01,21.5-31.97,36.4-68.97,36.4c-37.3,0-60.56-15.25-69.47-37.05
		C143.97,241.9,209.16,255.54,272.19,240.24z"/>
	<path class="st14" d="M276.57,217.64c0,8.05-1.46,15.66-4.38,22.6c-63.03,15.3-128.22,1.66-138.44-0.65
		c-2.77-6.8-4.18-14.2-4.18-21.95h0.55c0,0,74.56,18.07,145.44,0.35L276.57,217.64z"/>
</g>
<path class="st1" d="M276.57,217.64c0,8.05-1.46,15.66-4.38,22.6c-63.03,15.3-128.22,1.66-138.44-0.65
	c-2.77-6.8-4.18-14.2-4.18-21.95h0.55c0,0,74.56,18.07,145.44,0.35L276.57,217.64z"/>
<path class="st15" d="M272.19,240.24c-9.01,21.5-31.97,36.4-68.97,36.4c-37.3,0-60.56-15.25-69.47-37.05
	C143.97,241.9,209.16,255.54,272.19,240.24z"/>
<path class="st15" d="M274.65,239.64c-0.81,0.2-1.66,0.4-2.47,0.6"/>
<path class="st15" d="M133.75,239.59c-0.96-0.25-1.41-0.35-1.41-0.35"/>
<g>
	<path class="st16" d="M90.1,366.57c-1.73,1.44-3.8,2.16-6.2,2.16s-4.47-0.72-6.2-2.16c-1.73-1.44-2.6-3.44-2.6-6v-11.2H53.74v11.2
		c0,2.56-0.87,4.56-2.6,6c-1.73,1.44-3.8,2.16-6.2,2.16s-4.47-0.72-6.2-2.16c-1.73-1.44-2.6-3.44-2.6-6v-39.92
		c0-2.61,0.87-4.64,2.6-6.08c1.73-1.44,3.8-2.16,6.2-2.16s4.47,0.72,6.2,2.16c1.73,1.44,2.6,3.47,2.6,6.08v11.2H75.1v-11.2
		c0-2.61,0.87-4.64,2.6-6.08c1.73-1.44,3.8-2.16,6.2-2.16s4.47,0.72,6.2,2.16c1.73,1.44,2.6,3.47,2.6,6.08v39.92
		C92.7,363.13,91.83,365.13,90.1,366.57z"/>
	<path class="st17" d="M112.3,349.57c-0.16,0.19-0.24,0.39-0.24,0.6c0,0.27,0.08,0.49,0.24,0.68c0.16,0.19,0.4,0.28,0.72,0.28h29.36
		c2.56,0,4.56,0.85,6,2.56c1.44,1.71,2.16,3.76,2.16,6.16c0,2.35-0.72,4.39-2.16,6.12c-1.44,1.73-3.44,2.6-6,2.6h-29.44
		c-1.01,0-1.76-0.05-2.24-0.16c-2.03-0.27-3.96-0.84-5.8-1.72s-3.45-2.07-4.84-3.56c-1.76-1.71-3.09-3.71-4-6
		c-0.91-2.29-1.36-4.64-1.36-7.04c0-1.81,0.37-3.53,1.12-5.16c0.75-1.63,1.92-3.08,3.52-4.36c-1.55-1.12-2.71-2.55-3.48-4.28
		c-0.77-1.73-1.16-3.51-1.16-5.32c0-2.4,0.45-4.73,1.36-7c0.91-2.27,2.24-4.25,4-5.96c2.72-2.88,6.27-4.64,10.64-5.28
		c0.48-0.11,1.23-0.16,2.24-0.16h29.44c2.56,0,4.56,0.85,6,2.56c1.44,1.71,2.16,3.76,2.16,6.16c0,2.35-0.72,4.39-2.16,6.12
		c-1.44,1.73-3.44,2.6-6,2.6h-29.36c-0.32,0-0.56,0.09-0.72,0.28c-0.16,0.19-0.24,0.39-0.24,0.6c0,0.27,0.08,0.49,0.24,0.68
		c0.16,0.19,0.4,0.28,0.72,0.28h29.92c0.16,0,0.61,0.05,1.36,0.16l0.48,0.16l0.32,0.08l0.4,0.16l0.4,0.16l0.4,0.24l0.32,0.16
		l0.4,0.24l0.32,0.24l0.32,0.24l0.24,0.32l0.32,0.24l0.24,0.32l0.48,0.64l0.24,0.32c0.11,0.21,0.16,0.35,0.16,0.4l0.24,0.32
		c0.11,0.21,0.29,0.72,0.56,1.52l0.08,0.4c0.05,0.11,0.08,0.24,0.08,0.4c0.05,0.11,0.08,0.24,0.08,0.4l0.08,0.4v0.4l0.08,0.4v0.8
		l-0.08,0.4v0.4l-0.08,0.4c0,0.16-0.03,0.29-0.08,0.4c0,0.16-0.03,0.29-0.08,0.4l-0.08,0.4c-0.53,1.76-1.45,3.19-2.76,4.28
		c-1.31,1.09-2.97,1.64-5,1.64h-29.36C112.7,349.29,112.46,349.39,112.3,349.57z"/>
	<path class="st18" d="M163.82,367.13c-2.35-0.96-4.37-2.27-6.08-3.92c-2.93-3.04-4.67-6.64-5.2-10.8
		c-0.11-0.48-0.16-1.25-0.16-2.32v-29.28c0-2.61,0.87-4.64,2.6-6.08c1.73-1.44,3.8-2.16,6.2-2.16c2.35,0,4.39,0.72,6.12,2.16
		c1.73,1.44,2.6,3.47,2.6,6.08v29.28c0,0.27,0.09,0.49,0.28,0.68c0.19,0.19,0.41,0.28,0.68,0.28h27.6c2.61,0,4.64,0.87,6.08,2.6
		c1.44,1.73,2.16,3.77,2.16,6.12c0,2.4-0.72,4.47-2.16,6.2c-1.44,1.73-3.47,2.6-6.08,2.6h-27.6
		C168.51,368.57,166.16,368.09,163.82,367.13z"/>
	<path class="st18" d="M246.86,312.65c3.09,0,6.04,0.81,8.84,2.44c2.8,1.63,5.05,3.79,6.76,6.48c1.71,2.69,2.56,5.61,2.56,8.76v30.4
		c0,2.56-0.87,4.57-2.6,6.04c-1.73,1.47-3.8,2.2-6.2,2.2c-2.4,0-4.47-0.73-6.2-2.2c-1.73-1.47-2.6-3.48-2.6-6.04v-11.12
		c-9.17,0-16.05-0.03-20.64-0.08h-0.72v11.2c0,2.56-0.87,4.57-2.6,6.04c-1.73,1.47-3.8,2.2-6.2,2.2c-2.4,0-4.47-0.73-6.2-2.2
		c-1.73-1.47-2.6-3.48-2.6-6.04v-29.6c0-3.36,0.85-6.45,2.56-9.28c1.71-2.83,3.99-5.08,6.84-6.76c2.85-1.68,5.96-2.52,9.32-2.52
		L246.86,312.65z M226.3,330.45c-0.16,0.19-0.24,0.39-0.24,0.6c0,0.27,0.09,0.49,0.28,0.68c0.19,0.19,0.44,0.28,0.76,0.28h19.36
		c0.32,0,0.56-0.09,0.72-0.28c0.16-0.19,0.24-0.39,0.24-0.6c0-0.27-0.08-0.49-0.24-0.68c-0.16-0.19-0.4-0.28-0.72-0.28h-19.44
		C226.7,330.17,226.46,330.27,226.3,330.45z"/>
	<path class="st17" d="M295.74,366.41c-2.83-1.65-5.08-3.88-6.76-6.68s-2.52-5.85-2.52-9.16v-19.76c0-0.21-0.11-0.43-0.32-0.64
		c-0.16-0.16-0.37-0.24-0.64-0.24c-0.21,0-0.43,0.08-0.64,0.24c-0.16,0.21-0.24,0.43-0.24,0.64v29.68c0,2.56-0.87,4.56-2.6,6
		c-1.73,1.44-3.8,2.16-6.2,2.16c-2.4,0-4.47-0.72-6.2-2.16c-1.73-1.44-2.6-3.44-2.6-6v-29.68c0-1.07,0.05-1.84,0.16-2.32
		c0.48-4.11,2.24-7.68,5.28-10.72c1.76-1.76,3.77-3.11,6.04-4.04c2.27-0.93,4.6-1.4,7-1.4c2.4,0,4.75,0.47,7.04,1.4
		c2.29,0.93,4.32,2.28,6.08,4.04c1.71,1.71,3.03,3.65,3.96,5.84c0.93,2.19,1.4,4.48,1.4,6.88l0.08,19.76c0,0.32,0.08,0.59,0.24,0.8
		s0.4,0.29,0.72,0.24c0.27,0,0.48-0.09,0.64-0.28c0.16-0.19,0.24-0.41,0.24-0.68v-29.6c0-2.61,0.87-4.64,2.6-6.08
		c1.73-1.44,3.8-2.16,6.2-2.16c2.35,0,4.39,0.72,6.12,2.16c1.73,1.44,2.6,3.47,2.6,6.08v29.44c0,3.36-0.83,6.47-2.48,9.32
		c-1.65,2.85-3.89,5.13-6.72,6.84c-2.83,1.71-5.92,2.56-9.28,2.56C301.63,368.89,298.56,368.07,295.74,366.41z"/>
	<path class="st16" d="M343.3,330.45c-0.19,0.19-0.28,0.41-0.28,0.68v18.96c0,0.27,0.08,0.49,0.24,0.68
		c0.16,0.19,0.37,0.28,0.64,0.28h19.04c0.27,0,0.48-0.08,0.64-0.24s0.24-0.37,0.24-0.64c0-0.21-0.08-0.4-0.24-0.56
		s-0.37-0.24-0.64-0.24h-10.48c-2.56,0-4.57-0.87-6.04-2.6c-1.47-1.73-2.2-3.8-2.2-6.2s0.73-4.47,2.2-6.2
		c1.47-1.73,3.48-2.6,6.04-2.6h10.48c1.07,0,1.84,0.05,2.32,0.16c4.21,0.53,7.79,2.29,10.72,5.28c1.76,1.76,3.11,3.77,4.04,6.04
		c0.93,2.27,1.4,4.57,1.4,6.92c0,2.4-0.47,4.73-1.4,7c-0.93,2.27-2.28,4.28-4.04,6.04c-1.76,1.76-3.75,3.09-5.96,4
		c-2.21,0.91-4.57,1.36-7.08,1.36H343.9c-2.51,0-4.87-0.45-7.08-1.36c-2.21-0.91-4.2-2.24-5.96-4c-1.65-1.65-2.97-3.67-3.96-6.04
		c-0.99-2.37-1.48-4.73-1.48-7.08v-19.04c0-2.35,0.49-4.69,1.48-7.04c0.99-2.35,2.31-4.35,3.96-6c2.93-2.93,6.51-4.69,10.72-5.28
		c0.96-0.11,1.73-0.16,2.32-0.16h29.36c2.56,0,4.56,0.87,6,2.6c1.44,1.73,2.16,3.8,2.16,6.2c0,2.4-0.72,4.47-2.16,6.2
		c-1.44,1.73-3.44,2.6-6,2.6h-29.28C343.71,330.17,343.48,330.27,343.3,330.45z"/>
</g>
<g>
</g>
<g>
</g>
<g>
</g>
<g>
</g>
<g>
</g>
<g>
</g>
<g>
</g>
<g>
</g>
<g>
</g>
<g>
</g>
<g>
</g>
<g>
</g>
<g>
</g>
<g>
</g>
<g>
</g>
</svg>
